<?xml version="1.0" encoding="utf-8"?>
<!-- Generator: Adobe Illustrator 22.1.0, SVG Export Plug-In . SVG Version: 6.00 Build 0)  -->
<svg version="1.1" id="Layer_1" xmlns="http://www.w3.org/2000/svg" xmlns:xlink="http://www.w3.org/1999/xlink" x="0px" y="0px"
	 viewBox="0 0 100 100" style="enable-background:new 0 0 100 100;" xml:space="preserve">
<style type="text/css">
	.st0{fill:none;stroke:#CC0001;stroke-width:1.5;stroke-miterlimit:10;}
</style>
<title>Page 1</title>
<desc>Created with Sketch.</desc>
<g>
	<path class="st0" d="M77.9,58c-3-2.9-5.2-5.8,5.6-6.9c0,0-0.4-7.5-26.8-8.5c-26.4-0.9-28.3-0.5-28.3-0.5s-5.3,1.3-8.2-6
		c-2.8-7.3-6.7-14.5-9.1-13.7c-2.3,0.8-1.2,3.4-1.2,3.4l2.8,18.9L0,53.4c0,0,4.9,2.8,17.3-3.1c0,0,5.6,3,13.9,6.8L0,76.3
		c0,0,3.1,4.6,28.6-3.8L43.7,67c1.8-0.7,3.8-1.5,5.8-2.3c12.6,4.6,26.2,8.1,35.7,6.5c0,0,13.5-2.2,2.2-15
		C87.3,56.2,80.9,60.9,77.9,58z M43.6,50c-1.5,0-2.7-0.8-2.7-1.7s1.2-1.7,2.7-1.7s2.7,0.8,2.7,1.7S45.1,50,43.6,50z M55.6,53.1
		c-2,0-3.6-1-3.6-2.3s1.6-2.3,3.6-2.3s3.6,1,3.6,2.3C59.3,52.1,57.6,53.1,55.6,53.1z"/>
	<path class="st0" d="M38.6,35.8c1.6-3.7-12.1,2.8-12.1,2.8l9.9,0.2C36.4,38.8,37.4,38.8,38.6,35.8z"/>
	<path class="st0" d="M98.5,36.9c-2.5-0.3-11.4-0.8-23,3.2c0,0,9.5,1.4,11.6,4.8l12.6-6.5C99.7,38.4,101,37.2,98.5,36.9z"/>
	<path class="st0" d="M46,69.4l-15.4,4.8c0,0,15.8,3.6,18.3-1.1C49.3,72,48.6,70.6,46,69.4z"/>
</g>
</svg>
