<?xml version="1.0" encoding="utf-8"?>
<!-- Generator: Adobe Illustrator 22.1.0, SVG Export Plug-In . SVG Version: 6.00 Build 0)  -->
<svg version="1.1" id="Layer_1" xmlns="http://www.w3.org/2000/svg" xmlns:xlink="http://www.w3.org/1999/xlink" x="0px" y="0px"
	 viewBox="0 0 100 100" style="enable-background:new 0 0 100 100;" xml:space="preserve">
<style type="text/css">
	.st0{fill:none;stroke:#CC0001;stroke-width:1.5;stroke-miterlimit:10;}
</style>
<g>
	<g>
		<path class="st0" d="M89.5,18.1L50.8,3.6c-0.4-0.2-1-0.2-1.4,0L10.7,18.1c-0.8,0.4-1.4,1-1.4,1.9c0,0.8,0.6,1.5,1.4,1.7l8.9,3.3
			c0,0.2,0,0.2,0,0.4v23.2c0,1.2,0.8,1.9,1.9,1.9s1.9-0.8,1.9-1.9V26.4l4.3,1.5c0,0.2,0,0.2,0,0.4v8.5c0,13.2,7,24.4,16.5,27.5h-9.1
			l15.1,22.1l12.6-22.1h-7.4C64.9,61,71.9,50,71.9,36.8v-8.5v-0.2l17.6-6.6c0.8-0.4,1.2-1,1.2-1.7C90.7,19.1,90.1,18.5,89.5,18.1z
			 M68,37.1c0,13.6-8.1,24.6-18.2,24.6l0,0c-10.1,0-18.2-11-18.2-24.6v-7.2c0.2,0,0.4-0.2,0.6-0.2h0.2c0.2,0,0.4,0,0.6-0.2
			c6-2.1,11.8-3.3,17.6-3.5c5,0,10.1,1,15.1,2.9c0.8,0.2,1.5,0.6,2.3,1V37.1z"/>
	</g>
	<g>
		<path class="st0" d="M67.6,64l-17,30L30.1,64.2C20,66.1,12.4,75.1,12.4,85.7v1.7c0,5,4.1,9.1,9.1,9.1h56.4c5,0,9.1-4.1,9.1-9.1
			v-1.7C87,74.5,78.5,65.2,67.6,64z"/>
	</g>
</g>
</svg>
