<?xml version="1.0" encoding="utf-8"?>
<!-- Generator: Adobe Illustrator 22.1.0, SVG Export Plug-In . SVG Version: 6.00 Build 0)  -->
<svg version="1.1" id="Layer_1" xmlns="http://www.w3.org/2000/svg" xmlns:xlink="http://www.w3.org/1999/xlink" x="0px" y="0px"
	 viewBox="0 0 100 100" style="enable-background:new 0 0 100 100;" xml:space="preserve">
<style type="text/css">
	.st0{fill:none;stroke:#CC0001;stroke-width:1.5;stroke-miterlimit:10;}
</style>
<g>
	<path class="st0" d="M98.9,69.4h-15c-0.7,0-1.1,0.5-1.1,1.1s0.5,1.1,1.1,1.1h15c0.7,0,1.1-0.5,1.1-1.1S99.5,69.4,98.9,69.4z"/>
	<path class="st0" d="M68.9,69.4h-15c-0.7,0-1.1,0.5-1.1,1.1s0.5,1.1,1.1,1.1h15c0.7,0,1.1-0.5,1.1-1.1S69.6,69.4,68.9,69.4z"/>
	<path class="st0" d="M77.9,69.4h-3.3c-0.7,0-1.1,0.5-1.1,1.1s0.5,1.1,1.1,1.1h3.3c0.7,0,1.1-0.5,1.1-1.1S78.6,69.4,77.9,69.4z"/>
	<path class="st0" d="M16.1,69.2h-15c-0.7,0-1.1,0.5-1.1,1.1s0.5,1.1,1.1,1.1h15c0.7,0,1.1-0.5,1.1-1.1S16.7,69.2,16.1,69.2z"/>
	<path class="st0" d="M25.3,69.2H22c-0.7,0-1.1,0.5-1.1,1.1s0.5,1.1,1.1,1.1h3.3c0.7,0,1.1-0.5,1.1-1.1S25.9,69.2,25.3,69.2z"/>
	<path class="st0" d="M53.3,79.3h-15c-0.7,0-1.1,0.5-1.1,1.1s0.5,1.1,1.1,1.1h15c0.7,0,1.1-0.5,1.1-1.1S53.8,79.3,53.3,79.3z"/>
	<path class="st0" d="M62.5,79.3h-3.3c-0.7,0-1.1,0.5-1.1,1.1s0.5,1.1,1.1,1.1h3.3c0.7,0,1.1-0.5,1.1-1.1S63.1,79.3,62.5,79.3z"/>
	<path class="st0" d="M43.9,64.9c0-1.9-1.6-3.6-3.6-3.6s-3.6,1.6-3.6,3.6s1.6,3.6,3.6,3.6C42.3,68.5,43.9,66.9,43.9,64.9z"/>
	<path class="st0" d="M49.9,64.9c0-5.3-4.3-9.6-9.6-9.6s-9.6,4.3-9.6,9.6s4.3,9.6,9.6,9.6S49.9,70.2,49.9,64.9z M34.6,64.9
		c0-3.2,2.6-5.9,5.9-5.9c3.2,0,5.9,2.6,5.9,5.9s-2.6,5.9-5.9,5.9S34.6,68.2,34.6,64.9z"/>
	<path class="st0" d="M70.7,31h-6v1.5c1.5,0.5,2.6,1.9,2.6,3.6c0,2-1.7,3.7-3.7,3.7c-2,0-3.7-1.7-3.7-3.7c0-1.7,1.1-3,2.6-3.6V31h-6
		v10.1h14.3L70.7,31L70.7,31z"/>
	<rect x="33.2" y="26.1" class="st0" width="14.3" height="1.9"/>
	<rect x="33.2" y="30.2" class="st0" width="14.3" height="1.9"/>
	<rect x="33.2" y="34.4" class="st0" width="14.3" height="6.8"/>
	<rect x="56.5" y="26.1" class="st0" width="14.3" height="2.6"/>
	<path class="st0" d="M40.3,53c6.5,0,11.9,5.3,12,11.8c0,0.7,0.6,1.1,1.1,1.1h30.3c3.3,0,6-2.7,6-6s-2.7-6-6-6h-5.5V43.3
		c3.3-0.3,5.7-3.2,5.7-6.4v-6.5c0-3.3-2.5-6.1-5.7-6.4v-4.4c0-0.7-0.6-1.1-1.1-1.1h-45c-2.8,0-5.5,0.5-8.1,1.5
		C15,23.1,8.4,31.8,8.4,42.1v22.7c0,0.7,0.6,1.1,1.1,1.1h17.7c0.6,0,1.1-0.5,1.1-1.1C28.5,58.3,33.8,53,40.3,53z M54.3,24.9
		c0-0.7,0.5-1.1,1.1-1.1H72c0.7,0,1.1,0.5,1.1,1.1v17.2c0,0.7-0.5,1.1-1.1,1.1H55.4c-0.7,0-1.1-0.5-1.1-1.1
		C54.3,42.1,54.3,24.9,54.3,24.9z M71.8,46.8c0.7,0,1.1,0.5,1.1,1.1v11.3c0,0.7-0.5,1.1-1.1,1.1H59c-0.5,0-0.9-0.3-1.1-0.8
		c-1.5-4.5-4.5-8.3-8.7-10.6c-0.5-0.2-0.7-0.8-0.6-1.2s0.6-0.9,1.1-0.9C49.7,46.8,71.8,46.8,71.8,46.8z M31,24.9
		c0-0.7,0.5-1.1,1.1-1.1h16.6c0.7,0,1.1,0.5,1.1,1.1v17.2c0,0.7-0.5,1.1-1.1,1.1H32.1c-0.7,0-1.1-0.5-1.1-1.1
		C31,42.1,31,24.9,31,24.9z M31.4,48.8c-4.2,2.4-7.2,6.1-8.7,10.6c-0.1,0.5-0.6,0.8-1.1,0.8h-6.9c-0.7,0-1.1-0.5-1.1-1.1V47.8
		c0-0.7,0.5-1.1,1.1-1.1H31c0.6,0,0.9,0.3,1.1,0.9C32.1,48.1,31.9,48.6,31.4,48.8z"/>
	<circle class="st0" cx="63.6" cy="36.1" r="1.5"/>
</g>
</svg>
