<?xml version="1.0" encoding="utf-8"?>
<!-- Generator: Adobe Illustrator 22.1.0, SVG Export Plug-In . SVG Version: 6.00 Build 0)  -->
<svg version="1.1" id="Layer_1" xmlns="http://www.w3.org/2000/svg" xmlns:xlink="http://www.w3.org/1999/xlink" x="0px" y="0px"
	 viewBox="0 0 100 100" style="enable-background:new 0 0 100 100;" xml:space="preserve">
<style type="text/css">
	.st0{fill:none;stroke:#CC0001;stroke-width:1.5;stroke-miterlimit:10;}
</style>
<path class="st0" d="M89.3,9.7H10.7v53.6h78.6C89.3,63.3,89.3,9.7,89.3,9.7z M51.8,56.1h-3.6V41.5l-4.1,4.1l-2.5-2.5l8.4-8.4
	l8.4,8.4l-2.5,2.5l-4.1-4.1C51.8,41.5,51.8,56.1,51.8,56.1z M69.5,49.9c-4.7,0.5-9.5,0.9-14.2,1v-3.6c4.6-0.1,9.2-0.5,13.8-1
	c3.2-0.4,5.4-3.2,5.1-6.4c-0.4-3.2-3.2-5.4-6.4-5.1c-1.7,0.2-3.2,1.2-4.2,2.6c-0.6,0.8-1.7,1-2.5,0.5s-1-1.6-0.5-2.4
	c1-1.5,2.3-2.7,4-3.4c0.5-5.7-3.7-10.7-9.4-11.2S44.5,24.6,44,30.3v0.9c0,1-0.7,1.8-1.7,1.9c-1,0-1.8-0.7-1.9-1.7v-0.2
	c0-0.8,0.1-1.6,0.2-2.4c-3.3-1.1-6.9,0.7-8,3.9c-0.9,2.8,0.2,5.8,2.7,7.4c0.8,0.6,1,1.7,0.4,2.5c-0.5,0.7-1.5,1-2.3,0.5
	c-1-0.6-1.8-1.4-2.6-2.3c-1.4,0.7-1.9,2.5-1.2,3.9c0.4,0.8,1.3,1.4,2.2,1.5c4.3,0.5,8.6,0.8,12.9,1v3.6c-4.5-0.2-8.9-0.5-13.3-1
	c-3.5-0.4-6.1-3.6-5.7-7.1c0.2-2.1,1.5-4,3.4-5c-1.6-5.2,1.3-10.7,6.5-12.3c1.9-0.6,4-0.6,6,0c2.2-4.9,7-8,12.3-8.2
	C61.6,17,68,23.1,68.2,30.8v0.4c5.1-0.1,9.4,3.9,9.6,9.1C77.8,45.2,74.3,49.4,69.5,49.9L69.5,49.9z"/>
<polygon class="st0" points="25.7,88.2 48.2,88.2 48.2,77.5 28.6,77.5 "/>
<polygon class="st0" points="29.6,73.9 48.2,73.9 48.2,66.8 31.6,66.8 "/>
<polygon class="st0" points="51.8,73.9 70.4,73.9 68.4,66.8 51.8,66.8 "/>
<polygon class="st0" points="51.8,77.5 51.8,88.2 74.3,88.2 71.4,77.5 "/>
<polygon class="st0" points="27.9,66.8 9.7,66.8 6.5,73.9 25.9,73.9 "/>
<polygon class="st0" points="0,88.2 22,88.2 24.9,77.5 4.9,77.5 "/>
<polygon class="st0" points="95.1,77.5 75.1,77.5 78,88.2 100,88.2 "/>
<polygon class="st0" points="74.1,73.9 93.5,73.9 90.3,66.8 72.1,66.8 "/>
</svg>
