<?xml version="1.0" encoding="utf-8"?>
<!-- Generator: Adobe Illustrator 22.1.0, SVG Export Plug-In . SVG Version: 6.00 Build 0)  -->
<svg version="1.1" id="Layer_1" xmlns="http://www.w3.org/2000/svg" xmlns:xlink="http://www.w3.org/1999/xlink" x="0px" y="0px"
	 viewBox="0 0 100 100" style="enable-background:new 0 0 100 100;" xml:space="preserve">
<style type="text/css">
	.st0{fill:none;stroke:#CC0001;stroke-width:1.5;stroke-miterlimit:10;}
</style>
<title>transport-travel-truck-transports-transportation-trucks-logistics</title>
<path class="st0" d="M39.7,70.6h24V17.4h-24V70.6z M51.7,20.9c4.8,0,8.6,3.8,8.6,8.6c0,1-0.7,1.7-1.7,1.7h-5.1v6
	c0,0.5,0.3,0.9,0.9,0.9c0.5,0,0.9-0.3,0.9-0.9v-0.9h3.4v0.9c0,2.4-1.9,4.3-4.3,4.3s-4.3-1.9-4.3-4.3v-6H45c-1,0-1.7-0.7-1.7-1.7
	C43.1,24.6,46.9,20.9,51.7,20.9L51.7,20.9z"/>
<rect x="27.7" y="17.4" class="st0" width="8.6" height="53.1"/>
<path class="st0" d="M20.9,14h8.6V8.9c0-3.8-3.1-6.9-6.9-6.9s-6.9,3.1-6.9,6.9C15.7,11.8,17.9,14,20.9,14z"/>
<path class="st0" d="M51.7,24.3c-2.2,0-4.1,1.4-4.8,3.4h9.8C55.8,25.7,53.9,24.3,51.7,24.3z"/>
<polygon class="st0" points="24.3,17.4 20.9,17.4 2,17.4 2,70.6 24.3,70.6 "/>
<path class="st0" d="M46.6,8.9c0-3.8-3.1-6.9-6.9-6.9s-6.9,3.1-6.9,6.9V14h8.6C44.3,14,46.6,11.8,46.6,8.9z"/>
<path class="st0" d="M93.2,41.4H67.1v30.9c0,1-0.7,1.7-1.7,1.7H2v12h7.7c2.4-5.7,8.9-8.4,14.6-6c2.7,1.2,4.8,3.3,6,6h41.1
	c2.4-5.7,8.9-8.4,14.6-6c2.7,1.2,4.8,3.3,6,6h6V65.6C98,65.6,93.2,41.4,93.2,41.4z M77.4,72.3h-6.9v-3.4h6.9V72.3z M94.2,64.7
	c-0.3,0.5-0.9,0.7-1.4,0.7H72.3c-1,0-1.7-0.7-1.7-1.7V46.6c0-1,0.7-1.7,1.7-1.7h17.1c0.9,0,1.5,0.5,1.7,1.4l3.4,17.1
	C94.6,63.9,94.6,64.4,94.2,64.7z"/>
<circle class="st0" cx="20" cy="90.3" r="7.7"/>
<polygon class="st0" points="74,48.3 74,62 90.8,62 88.1,48.3 "/>
<circle class="st0" cx="81.7" cy="90.3" r="7.7"/>
</svg>
