<?xml version="1.0" encoding="utf-8"?>
<!-- Generator: Adobe Illustrator 22.1.0, SVG Export Plug-In . SVG Version: 6.00 Build 0)  -->
<svg version="1.1" id="Layer_1" xmlns="http://www.w3.org/2000/svg" xmlns:xlink="http://www.w3.org/1999/xlink" x="0px" y="0px"
	 viewBox="0 0 283.5 283.5" style="enable-background:new 0 0 283.5 283.5;" xml:space="preserve">
<style type="text/css">
	.st0{fill:none;stroke:#CC0001;stroke-width:3;stroke-miterlimit:10;}
</style>
<polygon class="st0" points="150.6,70.2 144,70.2 144,31 198.5,31 198.5,1.6 144,1.6 144,1.6 140.5,1.6 140.5,70.2 132.8,70.2 
	132.8,104.2 150.6,104.2 "/>
<path class="st0" d="M142.3,155.5l100.3,25.9v-72.8H40.9v72.8l100.8-26.1L142.3,155.5L142.3,155.5z M170.3,121.7H230v32.1h-59.7
	C170.3,153.8,170.3,121.7,170.3,121.7z M113.2,153.8H53.5v-32.1h59.7V153.8z"/>
<polygon class="st0" points="238.1,271.5 272.3,193.8 247,187.3 141.7,160 36.4,187.3 11.1,193.8 45.4,271.5 "/>
<rect x="12.3" y="277.4" class="st0" width="258.8" height="4.5"/>
</svg>
