<?xml version="1.0" encoding="utf-8"?>
<!-- Generator: Adobe Illustrator 22.1.0, SVG Export Plug-In . SVG Version: 6.00 Build 0)  -->
<svg version="1.1" id="Layer_1" xmlns="http://www.w3.org/2000/svg" xmlns:xlink="http://www.w3.org/1999/xlink" x="0px" y="0px"
	 viewBox="0 0 100 100" style="enable-background:new 0 0 100 100;" xml:space="preserve">
<style type="text/css">
	.st0{fill:none;stroke:#CC0001;stroke-width:1.5;stroke-miterlimit:10;}
</style>
<path class="st0" d="M98.1,88.1l-8.7-8.4c-0.7-0.7-1.5-1-2.4-1.1l-2-2c3-3.8,4.5-8.6,4.5-13.4c0-12.2-9.9-22-22-22
	s-21.9,10-21.9,22.1s9.9,22,22,22c4.8,0,9.5-1.6,13.5-4.6l1.8,1.8c0,1,0.4,2,1.2,2.7l8.7,8.4c0.8,0.8,1.6,1.1,2.7,1.1
	s2.1-0.4,2.7-1.2C99.8,92.1,99.7,89.7,98.1,88.1z M67.6,79.6c-9,0-16.2-7.2-16.2-16.2s7.2-16.2,16.2-16.2s16.2,7.2,16.2,16.2
	C83.9,72.2,76.6,79.6,67.6,79.6z"/>
<circle class="st0" cx="68.5" cy="53.8" r="3.2"/>
<path class="st0" d="M72.5,70.3c-0.5-0.3-1.3-0.2-1.6,0.4l0,0c0,0-0.1,0.1-0.3,0.2c-0.3,0.2-0.9,0.5-1.5,0.8
	c-0.2,0.1-0.3,0.1-0.5,0.2s-0.3,0.1-0.5,0.2V72v-1.3c0.1-1,0.2-2.1,0.4-3.1s0.4-1.9,0.7-2.7c0.2-0.8,0.4-1.4,0.5-1.9
	s0.2-0.7,0.2-0.7c0-0.1,0.1-0.2,0.1-0.3c0.2-1.3-0.7-2.6-2-2.9c-1.3-0.2-2.6,0.7-2.9,2c0,0,0,0.3-0.1,0.8s-0.2,1.2-0.3,2.1
	s-0.2,1.9-0.3,3s-0.1,2.3,0,3.6c0,0.7,0.1,1.3,0.3,2c0.1,0.3,0.2,0.8,0.4,1.2c0.1,0.2,0.2,0.4,0.4,0.7s0.4,0.4,0.8,0.7
	c0.3,0.2,0.7,0.2,1,0.3c0.3,0,0.7,0,0.9-0.1l0.3-0.1c0.1,0,0.2-0.1,0.2-0.1c0.1,0,0.2-0.1,0.3-0.1c0.2-0.1,0.4-0.2,0.7-0.3
	c0.2-0.1,0.4-0.2,0.7-0.3c0.8-0.4,1.4-1,1.9-1.4c0.4-0.4,0.7-0.8,0.8-0.9C73.2,71.4,73,70.6,72.5,70.3L72.5,70.3z M67.4,72.2
	C67.3,72.2,67.3,72.2,67.4,72.2C67.3,72.2,67.3,72.2,67.4,72.2L67.4,72.2L67.4,72.2z"/>
<path class="st0" d="M72,38.6c5.4,1,10.2,3.6,13.8,7.5c1.1-0.8,1.4-2.5,0.3-3.5L74,31.6V12.5c0-0.7-0.5-1.1-1.1-1.1h-10
	c-0.7,0-1.1,0.5-1.1,1.1v7.7l-15.2-14c-1.6-1.4-4.1-1.4-5.6,0L1.4,42.4c-1.5,1.4-0.5,3.9,1.5,3.9h5.2L43.7,13L72,38.6z"/>
<path class="st0" d="M47.6,78.3H34V60c0-2.5,2-4.5,4.5-4.5h5.4c3.2-9.5,11.8-16.7,22.4-17.2L43.7,18.1L13.5,46.4v31.9h-0.9
	c-0.9,0-1.6,0.8-1.6,1.6v4.7c0,0.9,0.8,1.6,1.6,1.6h44.8C53.5,84.4,50.1,81.8,47.6,78.3z"/>
</svg>
