<?xml version="1.0" encoding="utf-8"?>
<!-- Generator: Adobe Illustrator 22.1.0, SVG Export Plug-In . SVG Version: 6.00 Build 0)  -->
<svg version="1.1" id="Layer_1" xmlns="http://www.w3.org/2000/svg" xmlns:xlink="http://www.w3.org/1999/xlink" x="0px" y="0px"
	 viewBox="0 0 100 100" style="enable-background:new 0 0 100 100;" xml:space="preserve">
<style type="text/css">
	.st0{fill:none;stroke:#CC0001;stroke-width:1.5;stroke-miterlimit:10;}
</style>
<path class="st0" d="M26,90.8h40.1c0.2,0,0.3,0,0.4,0.1l13.7,6.4L79.9,98l0.4-0.8c0.4,0.2,0.6,0.7,0.4,1.1c-0.1,0.3-0.4,0.5-0.8,0.5
	H12.2c-0.5,0-0.8-0.4-0.8-0.8s0.2-0.7,0.5-0.8l13.7-6.4L26,90.8L26,90.8z"/>
<polygon class="st0" points="43.6,74.7 43.6,89.1 48.5,89.1 48.5,74.7 "/>
<path class="st0" d="M98.5,24.9h-3.9c-0.9,0-1.5-0.7-1.5-1.5s0.7-1.5,1.5-1.5h3.9c0.9,0,1.5,0.7,1.5,1.5S99.3,24.9,98.5,24.9z
	 M94.9,35l-3.3-1.9c-0.7-0.4-1-1.4-0.6-2.1s1.4-1,2.1-0.6l3.3,1.9c0.7,0.4,1,1.4,0.6,2.1C96.6,35.2,95.7,35.5,94.9,35z M86.8,42.1
	l-1.9-3.3c-0.4-0.7-0.2-1.7,0.6-2.1c0.7-0.4,1.7-0.2,2.1,0.6l1.9,3.3c0.4,0.7,0.2,1.7-0.6,2.1C88.2,43,87.2,42.8,86.8,42.1z
	 M79.3,2.7v3.9c0,0.9-0.7,1.5-1.5,1.5c-0.9,0-1.5-0.7-1.5-1.5V2.7c0-0.9,0.7-1.5,1.5-1.5C78.6,1.1,79.3,1.8,79.3,2.7z M89.4,6.2
	l-1.9,3.3c-0.4,0.7-1.4,1-2.1,0.6s-1-1.4-0.6-2.1l1.9-3.3c0.4-0.7,1.4-1,2.1-0.6C89.6,4.5,89.9,5.5,89.4,6.2z M96.5,14.3l-3.3,1.9
	c-0.7,0.4-1.7,0.2-2.1-0.6c-0.4-0.7-0.2-1.7,0.6-2.1l3.3-1.9c0.7-0.4,1.7-0.2,2.1,0.6C97.4,13,97.2,13.9,96.5,14.3z M60.6,11.7
	l3.3,1.9c0.7,0.4,1,1.4,0.6,2.1s-1.4,1-2.1,0.6l-3.3-1.9c-0.7-0.4-1-1.4-0.6-2.1C58.9,11.5,59.9,11.3,60.6,11.7z M68.7,4.7l2,3.3
	c0.4,0.7,0.2,1.7-0.6,2.1c-0.7,0.4-1.7,0.2-2.1-0.6l-1.9-3.3c-0.4-0.7-0.2-1.7,0.6-2.1C67.4,3.7,68.3,3.9,68.7,4.7z"/>
<polygon class="st0" points="25.5,24.4 15.2,24.4 12.4,33.5 23.6,33.5 "/>
<polygon class="st0" points="27.2,24.4 25.3,33.5 37.3,33.5 38,24.4 "/>
<polygon class="st0" points="39.7,24.4 39,33.5 53.1,33.5 52.4,24.4 "/>
<polygon class="st0" points="54.1,24.4 54.8,33.5 66.8,33.5 64.9,24.4 63.5,24.4 "/>
<polygon class="st0" points="66.6,24.4 68.5,33.5 79.8,33.5 76.9,24.4 "/>
<path class="st0" d="M64.4,22.8h13.2c0.4,0,0.7,0.3,0.8,0.6c1.3,4.2,2.7,8.6,3.9,12.5c2.4-0.9,4.4-2.5,5.9-4.5
	c1.6-2.2,2.6-4.9,2.6-7.8c0-3.6-1.5-6.9-3.9-9.3s-5.7-3.9-9.3-3.9s-6.9,1.5-9.3,3.9C66,16.5,64.6,19.5,64.4,22.8z"/>
<polygon class="st0" points="87.8,59.1 73.8,59.1 76.8,73 92.1,73 "/>
<polygon class="st0" points="73.5,57.4 87.2,57.4 83.9,46.8 71.3,46.8 "/>
<polygon class="st0" points="71.8,57.4 69.6,46.8 55.8,46.8 56.6,57.4 "/>
<polygon class="st0" points="72.1,59.1 56.8,59.1 57.8,73 75.1,73 "/>
<polygon class="st0" points="56.2,73 55.1,59.1 37,59.1 36,73 46.1,73 "/>
<polygon class="st0" points="34.3,73 35.4,59.1 20,59.1 17.1,73 "/>
<polygon class="st0" points="15.4,73 18.3,59.1 4.4,59.1 0,73 "/>
<polygon class="st0" points="4.9,57.4 18.6,57.4 20.9,46.8 8.2,46.8 "/>
<polygon class="st0" points="8.7,45.1 21.2,45.1 23.3,35.1 11.8,35.1 "/>
<polygon class="st0" points="25,35.1 22.9,45.1 36.4,45.1 37.2,35.1 "/>
<polygon class="st0" points="38.9,35.1 38.1,45.1 54,45.1 53.3,35.1 "/>
<polygon class="st0" points="54.9,35.1 55.7,45.1 69.2,45.1 67.1,35.1 "/>
<polygon class="st0" points="68.8,35.1 70.9,45.1 83.4,45.1 80.3,35.1 "/>
<polygon class="st0" points="55,57.4 54.1,46.8 38,46.8 37.1,57.4 "/>
<polygon class="st0" points="35.5,57.4 36.3,46.8 22.5,46.8 20.3,57.4 "/>
<rect x="46.6" y="45.7" class="st0" width="6.8" height="6.8"/>
</svg>
