<?xml version="1.0" encoding="utf-8"?>
<!-- Generator: Adobe Illustrator 22.1.0, SVG Export Plug-In . SVG Version: 6.00 Build 0)  -->
<svg version="1.1" id="Layer_1" xmlns="http://www.w3.org/2000/svg" xmlns:xlink="http://www.w3.org/1999/xlink" x="0px" y="0px"
	 viewBox="0 0 100 100" style="enable-background:new 0 0 100 100;" xml:space="preserve">
<style type="text/css">
	.st0{fill:none;stroke:#CC0001;stroke-width:1.5;stroke-miterlimit:10;}
</style>
<path class="st0" d="M99.8,41.7V30.6h-7.7v-21c0-3.7-3-6.6-6.6-6.6H14.6C10.9,3,8,6,8,9.6v21H0.2v11.1h7.7v45.4H4.6v3.3H0.2V97h99.6
	v-6.6h-4.4v-3.3h-3.3V41.7C92.1,41.7,99.8,41.7,99.8,41.7z M47.8,87.1H25.7V47.2h22.1V87.1z M74.3,87.1H52.2V47.2h22.1V87.1z
	 M85.4,30.6H14.6v-21h70.8V30.6z"/>
<rect x="54.4" y="66" class="st0" width="5.5" height="2.2"/>
<rect x="40" y="66" class="st0" width="5.5" height="2.2"/>
</svg>
