<?xml version="1.0" encoding="utf-8"?>
<!-- Generator: Adobe Illustrator 22.1.0, SVG Export Plug-In . SVG Version: 6.00 Build 0)  -->
<svg version="1.1" id="Layer_1" xmlns="http://www.w3.org/2000/svg" xmlns:xlink="http://www.w3.org/1999/xlink" x="0px" y="0px"
	 viewBox="0 0 100 100" style="enable-background:new 0 0 100 100;" xml:space="preserve">
<style type="text/css">
	.st0{fill:none;stroke:#CC0001;stroke-width:1.5;stroke-miterlimit:10;}
</style>
<path class="st0" d="M66.9,5.3v8.8H30V5.3C30,4.6,30.6,4,31.4,4h34C66.2,4,66.9,4.6,66.9,5.3z"/>
<rect x="76.6" y="76.8" class="st0" width="10.9" height="19.2"/>
<path class="st0" d="M94.7,38.9v55.7c0,0.8-0.6,1.4-1.4,1.4h-2.8V75.3c0-0.8-0.6-1.4-1.4-1.4H75.4c-0.8,0-1.4,0.6-1.4,1.4V96h-4.3
	c0.2-0.5,0.3-0.9,0.3-1.4V37.5h23.4C94,37.5,94.7,38.1,94.7,38.9z"/>
<rect x="9.2" y="76.8" class="st0" width="10.9" height="19.2"/>
<path class="st0" d="M23.1,96V75.3c0-0.8-0.6-1.4-1.4-1.4H7.8c-0.8,0-1.4,0.6-1.4,1.4V96H3.5c-0.8,0-1.4-0.6-1.4-1.4V38.9
	c0-0.8,0.6-1.4,1.4-1.4h23.4v57.1c0,0.5,0.2,0.9,0.3,1.4H23.1z"/>
<rect x="42.9" y="76.8" class="st0" width="10.9" height="19.2"/>
<path class="st0" d="M29.8,17v77.6c0,0.8,0.6,1.4,1.4,1.4H40V75.3c0-0.8,0.6-1.4,1.4-1.4h13.7c0.8,0,1.4,0.6,1.4,1.4V96h8.9
	c0.8,0,1.4-0.6,1.4-1.4V17C66.8,17,29.8,17,29.8,17z M38.6,67.1c0,0.8-0.6,1.4-1.4,1.4s-1.4-0.6-1.4-1.4v-3.2c0-0.8,0.6-1.4,1.4-1.4
	s1.4,0.6,1.4,1.4V67.1z M38.6,53.5c0,0.8-0.6,1.4-1.4,1.4s-1.4-0.6-1.4-1.4v-3.2c0-0.8,0.6-1.4,1.4-1.4s1.4,0.6,1.4,1.4V53.5z
	 M38.6,40.1c0,0.8-0.6,1.4-1.4,1.4s-1.4-0.6-1.4-1.4v-3.2c0-0.8,0.6-1.4,1.4-1.4s1.4,0.6,1.4,1.4V40.1z M38.6,26.6
	c0,0.8-0.6,1.4-1.4,1.4s-1.4-0.6-1.4-1.4v-3.2c0-0.8,0.6-1.4,1.4-1.4s1.4,0.6,1.4,1.4V26.6z M46.2,67.1c0,0.8-0.6,1.4-1.4,1.4
	s-1.4-0.6-1.4-1.4v-3.2c0-0.8,0.6-1.4,1.4-1.4s1.4,0.6,1.4,1.4V67.1z M46.2,53.5c0,0.8-0.6,1.4-1.4,1.4s-1.4-0.6-1.4-1.4v-3.2
	c0-0.8,0.6-1.4,1.4-1.4s1.4,0.6,1.4,1.4V53.5z M46.2,40.1c0,0.8-0.6,1.4-1.4,1.4s-1.4-0.6-1.4-1.4v-3.2c0-0.8,0.6-1.4,1.4-1.4
	s1.4,0.6,1.4,1.4V40.1z M46.2,26.6c0,0.8-0.6,1.4-1.4,1.4s-1.4-0.6-1.4-1.4v-3.2c0-0.8,0.6-1.4,1.4-1.4s1.4,0.6,1.4,1.4V26.6z
	 M53.5,67.1c0,0.8-0.6,1.4-1.4,1.4s-1.4-0.6-1.4-1.4v-3.2c0-0.8,0.6-1.4,1.4-1.4s1.4,0.6,1.4,1.4V67.1z M53.5,53.5
	c0,0.8-0.6,1.4-1.4,1.4s-1.4-0.6-1.4-1.4v-3.2c0-0.8,0.6-1.4,1.4-1.4s1.4,0.6,1.4,1.4V53.5z M53.5,40.1c0,0.8-0.6,1.4-1.4,1.4
	s-1.4-0.6-1.4-1.4v-3.2c0-0.8,0.6-1.4,1.4-1.4s1.4,0.6,1.4,1.4V40.1z M53.5,26.6c0,0.8-0.6,1.4-1.4,1.4s-1.4-0.6-1.4-1.4v-3.2
	c0-0.8,0.6-1.4,1.4-1.4s1.4,0.6,1.4,1.4V26.6z M61.1,67.1c0,0.8-0.6,1.4-1.4,1.4s-1.4-0.6-1.4-1.4v-3.2c0-0.8,0.6-1.4,1.4-1.4
	s1.4,0.6,1.4,1.4V67.1z M61.1,53.5c0,0.8-0.6,1.4-1.4,1.4s-1.4-0.6-1.4-1.4v-3.2c0-0.8,0.6-1.4,1.4-1.4s1.4,0.6,1.4,1.4V53.5z
	 M61.1,40.1c0,0.8-0.6,1.4-1.4,1.4s-1.4-0.6-1.4-1.4v-3.2c0-0.8,0.6-1.4,1.4-1.4s1.4,0.6,1.4,1.4V40.1z M61.1,26.6
	c0,0.8-0.6,1.4-1.4,1.4s-1.4-0.6-1.4-1.4v-3.2c0-0.8,0.6-1.4,1.4-1.4s1.4,0.6,1.4,1.4V26.6z"/>
<path class="st0" d="M99.3,26.9c0,0.8-0.6,1.4-1.4,1.4s-1.4-0.6-1.4-1.4C96.5,17.5,89,10,79.6,10c-0.8,0-1.4-0.6-1.4-1.4
	s0.6-1.4,1.4-1.4C90.3,7,99.3,16,99.3,26.9z"/>
<path class="st0" d="M83.3,22.9c1.8,1.8,1.8,4.8,0,6.6c-0.5,0.5-1.2,0.9-1.8,1.1v7.9c0,0.8-0.6,1.4-1.4,1.4s-1.4-0.6-1.4-1.4v-7.9
	c-0.6-0.2-1.4-0.6-1.8-1.1c-1.8-1.8-1.8-4.8,0-6.6C78.5,21.2,81.6,21.2,83.3,22.9z"/>
<path class="st0" d="M90,26.9c0,0.8-0.6,1.4-1.4,1.4s-1.4-0.6-1.4-1.4c0-4.3-3.5-7.7-7.7-7.7c-0.8,0-1.4-0.6-1.4-1.4
	s0.6-1.4,1.4-1.4C85.3,16.3,90,20.9,90,26.9z"/>
<path class="st0" d="M94.7,26.9c0,0.8-0.6,1.4-1.4,1.4s-1.4-0.6-1.4-1.4c0-6.8-5.5-12.3-12.3-12.3c-0.8,0-1.4-0.6-1.4-1.4
	s0.6-1.4,1.4-1.4C87.9,11.7,94.7,18.4,94.7,26.9z"/>
<path class="st0" d="M20.1,28.9H6c-6,0-7.1-8.3-2-10.2c0.8-3.7,5.1-5.4,8.2-3.2c2.9-2.2,7.4-0.3,8.2,2.9
	C27.2,18.7,27.1,28.9,20.1,28.9z"/>
</svg>
