<?xml version="1.0" encoding="utf-8"?>
<!-- Generator: Adobe Illustrator 22.1.0, SVG Export Plug-In . SVG Version: 6.00 Build 0)  -->
<svg version="1.1" id="Layer_1" xmlns="http://www.w3.org/2000/svg" xmlns:xlink="http://www.w3.org/1999/xlink" x="0px" y="0px"
	 viewBox="0 0 100 100" style="enable-background:new 0 0 100 100;" xml:space="preserve">
<style type="text/css">
	.st0{fill:none;stroke:#CC0001;stroke-width:1.5;stroke-miterlimit:10;}
</style>
<path class="st0" d="M35.5,95.8c-0.7,0-1.3-0.6-1.3-1.3V36.9l-8.9-4.2l-11.2,7.8v53.9c0,0.7-0.6,1.3-1.3,1.3s-1.3-0.6-1.3-1.3V39.8
	c0-0.4,0.2-0.8,0.6-1.1l12.4-8.6c0.4-0.3,0.9-0.3,1.3-0.1l10.3,4.9c0.5,0.2,0.8,0.7,0.8,1.2v58.3C36.8,95.2,36.2,95.8,35.5,95.8z"/>
<path class="st0" d="M87.2,95.8c-0.7,0-1.3-0.6-1.3-1.3v-51l-7.6-3.9l-10.1,6.5c-0.4,0.3-0.9,0.3-1.3,0c-0.4-0.2-0.7-0.7-0.7-1.2
	V12.3l-9.1-9.2L36.8,19.5v16.6c0,0.7-0.6,1.3-1.3,1.3s-1.3-0.6-1.3-1.3V18.9c0-0.4,0.2-0.8,0.5-1L56.4,0.3c0.5-0.4,1.3-0.4,1.8,0.1
	l10.3,10.4c0.2,0.2,0.4,0.6,0.4,0.9v30.8l8.7-5.6c0.4-0.3,0.9-0.3,1.3-0.1l9,4.6c0.4,0.2,0.7,0.7,0.7,1.2v51.7
	C88.6,95.2,88,95.8,87.2,95.8z"/>
<path class="st0" d="M53.6,95.8c-0.7,0-1.3-0.6-1.3-1.3V4.2c0-0.7,0.6-1.3,1.3-1.3S55,3.5,55,4.2v90.2C55,95.2,54.4,95.8,53.6,95.8z
	"/>
<path class="st0" d="M25.2,95.8c-0.7,0-1.3-0.6-1.3-1.3V31.2c0-0.7,0.6-1.3,1.3-1.3s1.3,0.6,1.3,1.3v63.2
	C26.5,95.2,25.9,95.8,25.2,95.8z"/>
<path class="st0" d="M67.5,95.8c-0.7,0-1.3-0.6-1.3-1.3V45c0-0.7,0.6-1.3,1.3-1.3s1.3,0.6,1.3,1.3v49.5
	C68.8,95.2,68.3,95.8,67.5,95.8z"/>
<path class="st0" d="M78.2,95.8c-0.7,0-1.3-0.6-1.3-1.3V38.1c0-0.7,0.6-1.3,1.3-1.3s1.3,0.6,1.3,1.3v56.3
	C79.6,95.2,79,95.8,78.2,95.8z"/>
<polygon class="st0" points="25.2,94.4 25.2,31.2 12.8,39.8 12.8,94.4 "/>
<polygon class="st0" points="35.5,36.1 35.5,94.4 53.6,94.4 53.6,4.2 35.5,18.9 "/>
<polygon class="st0" points="67.5,45 67.5,94.4 78.2,94.4 78.2,38.1 "/>
</svg>
