<?xml version="1.0" encoding="utf-8"?>
<!-- Generator: Adobe Illustrator 22.1.0, SVG Export Plug-In . SVG Version: 6.00 Build 0)  -->
<svg version="1.1" id="Layer_1" xmlns="http://www.w3.org/2000/svg" xmlns:xlink="http://www.w3.org/1999/xlink" x="0px" y="0px"
	 viewBox="0 0 100 100" style="enable-background:new 0 0 100 100;" xml:space="preserve">
<style type="text/css">
	.st0{fill:none;stroke:#CC0001;stroke-width:1.5;stroke-miterlimit:10;}
</style>
<path class="st0" d="M68.9,88.7c-1.5-1.8-3-3.6-4.6-5.3c-1.8-1.8-3.8-3.5-5.8-5.1s-4.1-3.1-6.3-4.5v-0.2c2.3,1.3,4.5,2.5,6.6,4
	c2,1.3,9.2,5.6,11.2,7.4c0.2,0.2,0.3,0,0.3-0.2c4.5-19.3-20.6-17.6-23.4-17.5c-0.2,0-0.2,0.2-0.2,0.3c3,26.2,18,22.8,22.1,21.3
	C69,89.1,69,88.7,68.9,88.7L68.9,88.7z"/>
<path class="st0" d="M92.1,39.8c0-0.2-0.2-0.2-0.3-0.2c-31.5,17.5-21.6,34.6-17,40.2c0.2,0.2,0.3,0.2,0.3,0c1.6-2.8,3.1-5.6,4.6-8.6
	c3.3-6.6,5.9-13.4,8.4-19.9c0-0.2,0.2-0.2,0.2-0.2h0.2c0.2,0,0.3,0.2,0.2,0.3c-1.5,6.8-3,13.5-5.3,20.3c-1,3.1-2.1,6.1-3.5,9.2
	c0,0.2,0,0.3,0.3,0.3C107.6,75.9,93.4,42.9,92.1,39.8z"/>
<path class="st0" d="M80.9,97.6c-0.2-0.2-0.3-0.2-0.3-0.2c-0.5-0.3-1.2-0.7-1.6-0.8c-1.2-0.5-2.3-0.7-3.5-0.7
	c0.3-2.1,0.8-4.5,1.3-6.6c0.3-1.3,0.7-2.5,1-3.8c0.5-2.3,0.7-4.6,0.8-6.9c0-0.3-0.3-0.3-0.5-0.2C76,81.7,74.3,85.3,73,89
	c0,0.2-0.3,0.2-0.5,0c-0.5-0.8-1.2-1.6-1.8-2.3c-0.3-0.2-0.5-0.5-0.8-0.7c-0.7-0.5-1.3-0.8-2-1.2c-0.2-0.2-0.5,0.2-0.3,0.3
	c1.5,1.6,2.6,3.5,3.6,5.4c0.3,0.7,0.7,1.3,0.7,2.1c0.2,1-0.2,2.1-0.3,3.1c0,0.2,0,0.3-0.2,0.3c-0.2,0.2-0.2,0.2-0.3,0.2h-0.2
	c-0.8,0-1.6-0.2-2.5-0.3h-0.2c-1-0.2-2.5-0.2-3.5,0.3c-0.2,0-0.2,0.3,0,0.5c0.3,0.2,0.8,0.5,1.2,0.7c0.7,0.3,1.5,0.5,2,0.7
	c1.2,0.3,2.5,0.3,3.6,0.3c1,0,2-0.2,3.1-0.3c0.8-0.2,1.6-0.2,2.3-0.2c0.5,0,1,0,1.5,0.2c1.2,0.2,2.3,0.7,3.3,1.2
	c0.2,0.2,0.3,0,0.3-0.2c0-0.3-0.2-0.7-0.3-1C81.4,98,81.2,97.8,80.9,97.6z"/>
<path class="st0" d="M55.2,18.5c0.5-0.2,0.8-0.7,0.7-1.2c0-0.2-0.2-0.5-0.5-0.5c-0.2-0.2-0.5-0.2-0.7,0l-9.6,2.5
	c0.3,0.5,0.5,1.2,0.5,1.8C45.6,21.1,55.2,18.5,55.2,18.5z"/>
<path class="st0" d="M43,27.2c0.2,0.5,0.7,0.8,1.2,0.7l16.5-4.6c0.5-0.2,0.8-0.7,0.7-1.2c-0.2-0.5-0.7-0.8-1.2-0.7L43.7,26
	C43.2,26.2,42.8,26.7,43,27.2z"/>
<path class="st0" d="M58.8,19.6c0-0.2-0.2-0.5-0.5-0.5c-0.2-0.2-0.5-0.2-0.7,0l-12,3.5v0.3c-0.2,0.7-0.5,1.3-1,1.8L58.2,21
	C58.7,20.6,59,20,58.8,19.6z"/>
<path class="st0" d="M62.6,31.7c1.3-0.5,2.6-1,3.5-2c0.8-1.2,0.8-2.8-0.3-3.6c-1.8-1.5-4.5-1-6.6-0.3c-4.9,1.5-9.6,4.5-14.8,4.5
	c-2.6,0-4.9-0.8-7.4-1.8s-4.9-2.1-7.4-3.5c-0.8-0.3-1.8-1-1.5-2s1.6-1,2.6-0.7c1.6,0.5,3.1,1.5,4.6,2.1c1.5,0.7,3.3,1.3,4.9,1
	c1.6-0.2,3.3-1.3,3.8-3c0.7-2.3-1.2-4.5-3.3-5.4c-2-1.2-4.5-1.5-6.3-2.8c-3.1-2.1-4.6-5.9-7.7-8.1c-2.5-1.6-5.3-1.8-8.1-2.3
	c-1.5-0.2-3.5-1.6-4.9-2.5l-1-0.7c-1.2-0.5-2.3,0-3,1C8,4.8,4.9,10.9,3.3,14c-0.5,1-0.2,2.3,1,2.8l2.8,1.5l3,1.5
	c1.5,1,2.6,2.5,4.1,3.5c1.6,1.2,3.5,2.3,5.1,3.6c4,2.6,8.2,5.1,12.5,7.1c3.8,1.6,7.9,3,12,3c3.8,0,7.4-1.3,11-2.6
	C57.5,33.5,60,32.7,62.6,31.7z"/>
<path class="st0" d="M66.7,47c-0.3,0-1.3,2.1-2.5,4.6c-0.3,0.7-0.7,1.5-0.5,2.1c0,1.5,1.5,2.6,3,2.6s2.8-1.2,3-2.6
	c0-0.8-0.3-1.5-0.5-2.1C68.1,49.2,67.1,47,66.7,47z"/>
<path class="st0" d="M65.1,37.1c-0.2,0.5-0.3,0.8-0.3,1.3c0,1,1,1.6,1.8,1.6c1,0,1.8-0.7,1.8-1.6c0-0.5-0.2-1-0.3-1.3
	c-0.7-1.6-1.3-3-1.5-3C66.4,34.2,65.7,35.5,65.1,37.1z"/>
</svg>
