<?xml version="1.0" encoding="utf-8"?>
<!-- Generator: Adobe Illustrator 22.1.0, SVG Export Plug-In . SVG Version: 6.00 Build 0)  -->
<svg version="1.1" id="Layer_1" xmlns="http://www.w3.org/2000/svg" xmlns:xlink="http://www.w3.org/1999/xlink" x="0px" y="0px"
	 viewBox="0 0 283.5 283.5" style="enable-background:new 0 0 283.5 283.5;" xml:space="preserve">
<style type="text/css">
	.st0{fill:none;stroke:#CC0001;stroke-width:3;stroke-miterlimit:10;}
</style>
<path class="st0" d="M267.9,216.5h-34.6v12.3c0,7.7,6.3,14,14,14h20.3c7.7,0,14-6.3,14-14v-19.7
	C278.8,213.7,273.6,216.5,267.9,216.5L267.9,216.5z"/>
<path class="st0" d="M15.6,216.5c-5.7,0-10.9-2.9-14-7.4v19.7c0,7.7,6.3,14,14,14h20.3c7.7,0,14-6.3,14-14v-12.3H15.6z"/>
<path class="st0" d="M273,95.8c5.1-0.9,8.9-5.4,8.9-10.6v-0.9c0-4-3.1-7.2-7.2-7.2h-18c-5.1,0-9.2,4-9.2,9.2v5.4l-2.3,2.3
	c-0.6-1.1-1.4-2.3-1.7-3.7l-11.2-30c-4.3-11.7-15.4-19.7-28-19.7H79.1c-12.6,0-23.7,7.7-28,19.7l-11.2,30c-0.6,1.4-1.1,2.6-1.7,3.7
	l-2.3-2.3v-5.4c0-5.1-4-9.2-9.2-9.2h-18c-4,0-7.2,3.1-7.2,7.2v0.9c0,5.1,3.7,9.7,8.9,10.6l22.6,4c-0.6,0.6-1.1,1.1-2,1.4L19.3,109
	c-11.2,7.7-17.7,20.3-17.7,33.8v56.9c0,7.7,6.3,14,14,14H268c7.7,0,14-6.3,14-14v-56.9c0-13.4-6.6-25.7-17.7-33.2l-11.7-7.7
	c-0.6-0.6-1.4-0.9-2-1.4L273,95.8L273,95.8z M62.2,63.2c2.3-6.9,8.6-11.4,16-11.4h127c7.2,0,13.7,4.6,16,11.4l12,32.6h-183
	L62.2,63.2z M196.1,139.9l-2.6,10c-1.4,6-6.6,10.6-12.9,11.4c-32.3,4.3-62.4,1.7-77.5,0c-6.3-0.9-11.4-5.4-13.2-11.4
	c-0.9-3.4-1.7-7.4-2.6-10c-0.6-2,0.9-3.7,2.9-3.7h102.4C194.9,136.2,196.4,137.9,196.1,139.9L196.1,139.9z M45.6,188.5
	c-0.6,4.6-4.3,8.3-8.9,8.9c-7.4,1.1-13.4-5.1-12.3-12.3c0.6-4.6,4.3-8.3,8.9-8.9C40.5,175.1,46.5,181.4,45.6,188.5z M67.6,157.6
	L25.9,153c-4.6-0.6-8-4.6-8-9.2v-13.7c0-3.7,3.4-6.9,7.4-6l25.7,5.1c10,2,18.3,9.4,21.2,19.5l0.9,3.1
	C73.9,155,71.1,158.2,67.6,157.6L67.6,157.6z M189.8,200.2H93.7l-2-6h100.1L189.8,200.2z M192.4,189.7H91.1l-2-6h105L192.4,189.7z
	 M194.9,179.4H88.5l-1.7-6h110.1L194.9,179.4z M259.3,188.5c-0.6,4.6-4.3,8.3-8.9,8.9c-7.4,1.1-13.4-5.1-12.3-12.3
	c0.6-4.6,4.3-8.3,8.9-8.9C254.4,175.1,260.5,181.4,259.3,188.5z M258.2,124.1c3.7-0.9,7.4,2,7.4,6v13.7c0,4.6-3.4,8.6-8,9.2
	l-41.8,4.9c-3.4,0.3-6-2.9-5.1-6l0.9-3.1c2.9-10,11.2-17.5,21.2-19.5L258.2,124.1L258.2,124.1z"/>
</svg>
