<?xml version="1.0" encoding="utf-8"?>
<!-- Generator: Adobe Illustrator 22.1.0, SVG Export Plug-In . SVG Version: 6.00 Build 0)  -->
<svg version="1.1" id="Layer_1" xmlns="http://www.w3.org/2000/svg" xmlns:xlink="http://www.w3.org/1999/xlink" x="0px" y="0px"
	 viewBox="0 0 100 100" style="enable-background:new 0 0 100 100;" xml:space="preserve">
<style type="text/css">
	.st0{fill:none;stroke:#CC0001;stroke-width:1.5;stroke-miterlimit:10;}
</style>
<g>
	<path class="st0" d="M86.7,12.8C47.1-16,13.6,12.7,13.2,12.9l-0.6,0.5v25.8c0,0.4,2,39.4,36.4,60.2l1,0.6l1-0.6
		c34.3-20.9,36.4-59.8,36.4-60.3V13.3L86.7,12.8z M83.6,39.1c0,0.4-2,36.7-33.6,56.5C18.4,75.7,16.4,39.5,16.4,39.2v-24
		c4.6-3.6,33.5-24,67.3,0.1v23.8H83.6z"/>
	<path class="st0" d="M18.7,39.2c0,0.4,0.3,2.1,0.9,5.9h27.9V45V6.3c-13.8,0.6-25.1,7.5-28.8,10.3V39.2z"/>
	<path class="st0" d="M81,38.7l0.1-22.3C71.8,10,62.5,6.6,52.5,6.3V45h27.6C80.9,41.2,81,38.8,81,38.7z"/>
	<path class="st0" d="M47.5,91.1V50H20.6C23.5,61.2,30,78.9,47.5,91.1z"/>
	<path class="st0" d="M79.1,50H52.5v41C68.8,78.6,76.3,61.2,79.1,50z"/>
</g>
</svg>
