<?xml version="1.0" encoding="utf-8"?>
<!-- Generator: Adobe Illustrator 22.1.0, SVG Export Plug-In . SVG Version: 6.00 Build 0)  -->
<svg version="1.1" id="Layer_1" xmlns="http://www.w3.org/2000/svg" xmlns:xlink="http://www.w3.org/1999/xlink" x="0px" y="0px"
	 viewBox="0 0 100 100" style="enable-background:new 0 0 100 100;" xml:space="preserve">
<style type="text/css">
	.st0{fill:none;stroke:#CC0001;stroke-width:1.5;stroke-miterlimit:10;}
</style>
<circle class="st0" cx="16.1" cy="12.8" r="2.8"/>
<circle class="st0" cx="10.9" cy="13.8" r="1.6"/>
<path class="st0" d="M21.6,15.3c1.8,1.2,4.2,0.9,5.6-0.7c0.4,0.3,0.8,0.5,1.3,0.6c-0.1,1.2,0.4,2.3,1.5,3.1c1.6,1,3.7,0.6,4.7-0.9
	c0.9-1.3,0.7-2.9-0.2-4.1l0.1-0.1c1.6-2.4,1-5.7-1.4-7.3s-5.7-1-7.3,1.4c-0.1,0.2-0.2,0.3-0.3,0.5c-1.8-0.7-3.9-0.1-5.1,1.6
	C19.1,11.4,19.6,14,21.6,15.3z"/>
<path class="st0" d="M89.2,90.9V74.3H88v-23h0.6c0.3,0,0.6-0.2,0.6-0.6v-1.4c0-0.3-0.2-0.6-0.6-0.6H88v-1.9c0-3.2-2.3-5.8-5.4-6.2
	v-1.4c0-2.8-2.3-5.1-5.1-5.1h-22V31H38.7v43.2h-2.4V24.5h1.1V21H27.1v3.5h1.1v49.8H25V56.8h1.7V44.1h-5.9v-2.7h-2.4v2.7h-7v12.8H13
	v17.5h-2.3V91H8v4h84v-4.1H89.2z M14.7,59.8l3.4,2.5l-3.4,2.5V59.8z M14.7,68l3.4,2.5L14.7,73V68z M14.9,74.3l4.2-3.1l4.2,3.1
	C23.3,74.3,14.9,74.3,14.9,74.3z M23.4,73L20,70.5l3.4-2.5V73z M23.4,66.5L19,69.7l-4.4-3.2v-0.2l4.4-3.2l4.4,3.2V66.5z M23.4,64.9
	L20,62.4l3.4-2.5V64.9z M23.4,58.4L19,61.6l-4.4-3.2v-1.6h8.7L23.4,58.4L23.4,58.4z M53.2,84.1h-6.3V78h6.3V84.1z M62.9,84.1h-6.3
	V78h6.3V84.1z M63.5,40.6c-2.9,0.5-5.2,3.1-5.2,6.2v1.9h-0.6c-0.3,0-0.6,0.2-0.6,0.6v1.4c0,0.3,0.2,0.6,0.6,0.6h0.6v23h-2.8V36h4.8
	c1.8,0,3.2,1.4,3.2,3.2V40.6z M72.6,84.1h-6.3V78h6.3V84.1z M75.3,48.8h-0.6c-0.3,0-0.6,0.2-0.6,0.6v1.4c0,0.3,0.2,0.6,0.6,0.6h0.6
	v23h-4.4v-23h0.6c0.3,0,0.6-0.2,0.6-0.6v-1.4c0-0.3-0.2-0.6-0.6-0.6h-0.6v-1.9c0-3.2-2.4-5.9-5.6-6.3v-1.4c0-1.2-0.4-2.3-1.1-3.2
	h13.3c1.8,0,3.2,1.4,3.2,3.2v1.4c-3,0.5-5.4,3.1-5.4,6.2C75.3,46.8,75.3,48.8,75.3,48.8z M82.4,84.1H76V78h6.3L82.4,84.1L82.4,84.1z
	"/>
<rect x="14.2" y="37" class="st0" width="1.2" height="7"/>
</svg>
