<?xml version="1.0" encoding="utf-8"?>
<!-- Generator: Adobe Illustrator 22.1.0, SVG Export Plug-In . SVG Version: 6.00 Build 0)  -->
<svg version="1.1" id="Layer_1" xmlns="http://www.w3.org/2000/svg" xmlns:xlink="http://www.w3.org/1999/xlink" x="0px" y="0px"
	 viewBox="0 0 100 100" style="enable-background:new 0 0 100 100;" xml:space="preserve">
<style type="text/css">
	.st0{fill:none;stroke:#CC0001;stroke-width:1.5;stroke-miterlimit:10;}
</style>
<g>
	<g>
		<path class="st0" d="M38.4,9.5c3.1-3.1,7.2-4.8,11.6-4.8s8.5,1.7,11.6,4.8c0.4,0.4,0.9,0.6,1.5,0.6s1.1-0.2,1.5-0.6
			c0.8-0.8,0.8-2.1,0-2.9c-3.9-3.9-9-6-14.5-6s-10.7,2.1-14.5,6c-0.8,0.8-0.8,2.1,0,2.9C36.3,10.4,37.6,10.4,38.4,9.5z"/>
	</g>
	<g>
		<path class="st0" d="M42.7,13.9c-0.8,0.8-0.8,2.1,0,2.9s2.1,0.8,2.9,0c2.4-2.4,6.3-2.4,8.7,0c0.4,0.4,0.9,0.6,1.5,0.6
			c0.5,0,1.1-0.2,1.5-0.6c0.8-0.8,0.8-2.1,0-2.9C53.3,9.9,46.7,9.9,42.7,13.9z"/>
	</g>
	<g>
		<path class="st0" d="M4.7,82.9c0,3.4,2.8,6.2,6.2,6.2h22.6v6.2h-4.1c-1.1,0-2.1,0.9-2.1,2.1s0.9,2.1,2.1,2.1h4.1l0,0h32.9l0,0h4.1
			c1.1,0,2.1-0.9,2.1-2.1s-0.9-2.1-2.1-2.1h-4.1v-6.2H89c3.4,0,6.2-2.8,6.2-6.2V72.6H4.7V82.9z M58.2,76.7h4.1v4.1h-4.1V76.7z
			 M47.9,76.7H52v4.1h-4.1V76.7z M37.7,76.7h4.1v4.1h-4.1V76.7z"/>
	</g>
	<g>
		<path class="st0" d="M89.1,21.2H10.9c-3.4,0-6.2,2.8-6.2,6.2v41.1h90.5V27.4C95.3,24,92.5,21.2,89.1,21.2z M50,31.5
			c4.5,0,8.2,3.7,8.2,8.2s-3.7,8.2-8.2,8.2s-8.2-3.7-8.2-8.2S45.5,31.5,50,31.5z M67.5,63c-0.8,0.9-1.9,1.4-3.1,1.4H35.6
			c-1.2,0-2.4-0.5-3.1-1.4s-1.1-2.1-1-3.3c0.8-5.5,4-10.1,8.4-12.9C42.1,50,45.8,52,50,52s7.8-2.1,10.1-5.2
			c4.4,2.8,7.6,7.4,8.4,12.9C68.6,60.9,68.3,62.1,67.5,63z"/>
	</g>
</g>
</svg>
