<?xml version="1.0" encoding="utf-8"?>
<!-- Generator: Adobe Illustrator 22.1.0, SVG Export Plug-In . SVG Version: 6.00 Build 0)  -->
<svg version="1.1" id="Layer_1" xmlns="http://www.w3.org/2000/svg" xmlns:xlink="http://www.w3.org/1999/xlink" x="0px" y="0px"
	 viewBox="0 0 283.5 283.5" style="enable-background:new 0 0 283.5 283.5;" xml:space="preserve">
<style type="text/css">
	.st0{fill:none;stroke:#CC0001;stroke-width:3;stroke-miterlimit:10;}
</style>
<path class="st0" d="M47.2,157.7h19.9v22.4H47.2C47.2,180.1,47.2,157.7,47.2,157.7z M70.2,180.1h19.3v-22.4H70.2V180.1z M149,131.8
	H99.7v-31.1H149V131.8z M137.4,120h-27.7v3.1h27.7V120z M24.2,180.1h19.9v-22.4H24.2C24.2,157.7,24.2,180.1,24.2,180.1z
	 M143.2,196.4h56.3v-13.3H2.2v13.3H143.2z M92.6,180.1h18.8v-22.4H92.6C92.6,157.7,92.6,180.1,92.6,180.1z M37.8,92.1h-3.1
	l-10.3,39.8h26.2C50.6,131.9,37.8,92.1,37.8,92.1z M114.5,180.1h40.3v-22.4h-40.3V180.1z M96.6,134.9H24.2v19.6h130.7v-19.6H96.6z
	 M148.8,97.6L121,60.5l-3.9,2.2l14.7,34.9h5.1L129,79l14,18.7L148.8,97.6L148.8,97.6z M281.2,63.6v4.7h-11.5l-96.2,111.8h-6.2
	l7.1-8.3L159,157.5l-0.8,0.7l-0.1-1.7v-4.6l0.2-0.2l94.1-88.1H281.2z M230.7,92.6v13.9l9.3-10.8L230.7,92.6z M232.8,88.4l9.2,3.1
	l1.6-13.2L232.8,88.4z M248.6,75.2l-1.4,12.1l8.6-10L248.6,75.2L248.6,75.2z M254.2,68.3l-3,2.8l7.9,2.3l4.4-5.1
	C263.5,68.3,254.2,68.3,254.2,68.3z M214.2,108.3l-0.5,17.8l10.9-12.6L214.2,108.3z M216.1,104l10,5V94.7L216.1,104z M197.2,125.4
	l0.6,19.3l10.1-11.7L197.2,125.4L197.2,125.4z M198.4,120.6l10.7,7.6l0.5-18C209.6,110.2,198.4,120.6,198.4,120.6z M180.7,141
	l-0.5,24.1l12.2-14.1L180.7,141z M192.5,126l-10.6,9.9l11.2,9.6L192.5,126L192.5,126z M162.4,154.3l13.1,12.1l0.5-24.9L162.4,154.3
	L162.4,154.3z M157.8,222.3l22.8-22.8h-8.8l-14,14v-14h-14.6v14l-14-14h-8.8l22.8,22.8v25.4h-42v4.3h88.4v-4.3h-31.8V222.3
	L157.8,222.3z M65.1,261.4H121v-4.3H65.1V261.4z M196.3,247.8v4.3h26.3v-4.3H196.3z M94,247.8H58.7v-25.3l22.9-22.9h-8.8l-14.1,14.1
	v-14.1H44.1v13.8l-13.8-13.8h-8.8l22.6,22.6v25.6h-5.2v4.3H94V247.8L94,247.8z M10.9,252.1h20.9v-4.3H10.9V252.1z M107.5,24.7
	l-0.4,0.6L50,119.8l-1.9-5.9l6.8-11.2l-10.2,0.6l-1.5-4.6l13.4-0.8l-1.4-13.4L43.8,97.3L42.3,96l-0.9-3l62.5-71
	C103.9,22,107.5,24.7,107.5,24.7z M72.1,72.9v-7.8L63.5,75L72.1,72.9z M60.7,92.9l8.9-14.6l-10.2,2.4L60.7,92.9z M89.5,45.3
	L76.8,59.8v6.6L89.5,45.3z"/>
</svg>
