<?xml version="1.0" encoding="utf-8"?>
<!-- Generator: Adobe Illustrator 22.1.0, SVG Export Plug-In . SVG Version: 6.00 Build 0)  -->
<svg version="1.1" id="Layer_1" xmlns="http://www.w3.org/2000/svg" xmlns:xlink="http://www.w3.org/1999/xlink" x="0px" y="0px"
	 viewBox="0 0 100 100" style="enable-background:new 0 0 100 100;" xml:space="preserve">
<style type="text/css">
	.st0{fill:none;stroke:#CC0001;stroke-width:1.5;stroke-miterlimit:10;}
</style>
<path class="st0" d="M99,15.3c-0.1-0.5-0.4-1-0.9-1.2s-1.1-0.2-1.5,0.2c0,0-3.3,2.3-9,2.3c-4.4,0-8.9-1.4-13.5-4.1
	c-0.1,0-0.1-0.1-0.2-0.1c-0.2-0.1-5.2-2.2-9.7-2.2c-5.7,0-7.1,3.5-7.4,5.6v0.4c0.2,2.4-0.1,4.9-0.7,5.5c-1.1,0-2.1,0.4-2.9,1.2h-1.4
	v-0.3v-0.1V13c2.7-0.7,4.6-3.1,4.6-5.9c0-3.4-2.8-6.1-6.2-6.1S44,3.8,44,7.1c0,2.9,2,5.3,4.6,5.9v9.5v0.1v0.3h-0.2h-1.6
	c-0.8-0.8-1.8-1.2-2.9-1.2c-0.6-0.6-1-3.2-0.7-5.5v-0.4c-0.3-2.1-1.7-5.6-7.4-5.6c-4.5,0-9.5,2.1-9.7,2.2c-0.1,0-0.1,0.1-0.2,0.1
	c-4.6,2.7-9.2,4.1-13.5,4.1c-5.6,0-8.9-2.3-9-2.3c-0.4-0.3-1-0.4-1.5-0.2S1.1,14.8,1,15.3c-0.9,7.6,7.7,13.3,10.3,14.8
	c2.3-0.5,8.4-2.4,12.7-8.1c4.5-5.9,10.2-8.9,16.9-8.9v1.5c-6.3-0.1-11.4,2.7-15.6,8.3s-9.9,7.7-12.8,8.5c2.7,3.5,6.3,4.3,8.9,4.3
	c0.7,0,1.3-0.1,1.8-0.1c1.1-0.9,5.1-4.1,6.9-9.1c1.4-3.6,3.2-6.7,11.8-6.6v1.5c-8.3-0.1-9.3,2.8-10.4,5.6c-1.6,4.2-4.5,7.2-6.3,8.8
	c1.2,0.7,2.4,1,3.6,1c3.2,0,5.8-2.2,7.9-3.9c0.9-0.8,1.8-1.5,2.4-1.8c0.9-0.4,1.7-0.6,2.4-0.6c3.6,0,5.4,4.8,5.4,4.9
	c0.1,0.3,0.3,0.5,0.5,0.7c-6.4,1.1-11.2,6.1-11.2,12c0,4.8,3.1,8.9,7.6,10.9c-2.7,1.7-4.5,4.4-4.5,7.5c0,4,3,7.4,7.2,8.7
	c-3.2,1.1-5.5,3.8-5.5,7c0,3.9,3.4,7,7.9,7.6c0.4,3.1,0.8,6.2,1.3,9.3c0.5-3.1,0.9-6.2,1.3-9.3c4.5-0.5,7.9-3.7,7.9-7.6
	c0-3.2-2.3-5.9-5.6-7.1c4.2-1.3,7.2-4.7,7.2-8.7c0-3.1-1.8-5.8-4.5-7.5c4.5-2,7.6-6.2,7.6-10.9c0-6.1-5-11.1-11.5-12.1
	c0.2-0.2,0.3-0.4,0.4-0.6c0,0,1.8-4.9,5.4-4.9c0.8,0,1.6,0.2,2.4,0.6c0.6,0.3,1.5,1,2.4,1.8c2.1,1.8,4.7,3.9,7.9,3.9
	c1.3,0,2.6-0.4,3.8-1.1c-1.5-1.8-3.7-4.6-6.1-8.6c-0.2-0.3-0.4-0.6-0.5-0.9c-1.4-2.5-2.7-4.9-9.9-4.8v-1.5c8,0,9.8,2.9,11.2,5.6
	c0.2,0.3,0.3,0.6,0.5,0.9c3.3,5.4,6.2,8.8,7.3,10c0.4,0.1,0.9,0.1,1.3,0.1c1.9,0,5-0.3,7.4-4.1c0.3-0.2,0.6-1,1.1-1.4
	c-3.6-0.5-8.4-2.4-12.3-8c-2.1-3.1-6.9-8.3-15.4-8.3h-0.2v-1.5h0.2c9.2,0,14.4,5.6,16.7,8.9c4.3,6.3,9.7,7.5,13,7.6
	C93.5,26.6,99.7,21.2,99,15.3L99,15.3z M50.2,10.1c-1.7,0-3.1-1.4-3.1-3.1s1.4-3,3.1-3s3.1,1.4,3.1,3.1S51.9,10.1,50.2,10.1z"/>
</svg>
