<?xml version="1.0" encoding="utf-8"?>
<!-- Generator: Adobe Illustrator 22.1.0, SVG Export Plug-In . SVG Version: 6.00 Build 0)  -->
<svg version="1.1" id="Layer_1" xmlns="http://www.w3.org/2000/svg" xmlns:xlink="http://www.w3.org/1999/xlink" x="0px" y="0px"
	 viewBox="0 0 100 100" style="enable-background:new 0 0 100 100;" xml:space="preserve">
<style type="text/css">
	.st0{fill:none;stroke:#CC0001;stroke-width:1.5;stroke-miterlimit:10;}
</style>
<title>118 -Satellite Antenna- (Solid)</title>
<desc>Created with Sketch.</desc>
<path class="st0" d="M83.2,89.9h-0.6L61.7,48.2c0.5-0.8,0.7-1.6,0.7-2.6c0-1.3-0.5-2.6-1.5-3.6l-1.4-1.4c2.7-3.8,3.9-8.4,3.4-13
	l-0.2-1.7c-0.6-5.8-2.4-11.3-5.3-16.2l-36,36.1c5,2.9,10.5,4.7,16.2,5.3l1.7,0.2c0.7,0.1,1.3,0.1,2,0.1c4,0,7.9-1.2,11.1-3.5
	l1.4,1.4c0.7,0.7,1.7,1.2,2.7,1.4L36.8,89.9h-0.6c-2.8,0-5,2.3-5,5c0,2.8,2.3,5,5,5h47c2.8,0,5-2.3,5-5S86,89.9,83.2,89.9z M58,89.9
	H40.6l4.2-8.4H58C58,81.5,58,89.9,58,89.9z M58,78.2H46.5l4.2-8.4H58V78.2z M58,66.4h-5.7L58,55.1V66.4z M61.4,55.1l5.7,11.4h-5.7
	C61.4,66.5,61.4,55.1,61.4,55.1z M61.4,69.8h7.4l4.2,8.4H61.4C61.4,78.2,61.4,69.8,61.4,69.8z M61.4,89.9v-8.4h13.2l4.2,8.4
	C78.8,89.9,61.4,89.9,61.4,89.9z"/>
<path class="st0" d="M51.2,1.4l-0.9-0.9c-0.7-0.7-1.7-0.7-2.4,0L31.2,17.1l-2.6-2.6c0.6-1,1-2.2,1-3.5c0-3.7-3-6.7-6.7-6.7
	s-6.7,3-6.7,6.7s3,6.7,6.7,6.7c1.2,0,2.3-0.3,3.3-0.9l2.7,2.7L12.2,36.1c-0.7,0.7-0.7,1.7,0,2.4l0.9,0.9c1.7,1.7,3.4,3.2,5.4,4.5
	L55.7,6.8C54.3,4.9,52.8,3.1,51.2,1.4z"/>
</svg>
