<?xml version="1.0" encoding="utf-8"?>
<!-- Generator: Adobe Illustrator 22.1.0, SVG Export Plug-In . SVG Version: 6.00 Build 0)  -->
<svg version="1.1" id="Layer_1" xmlns="http://www.w3.org/2000/svg" xmlns:xlink="http://www.w3.org/1999/xlink" x="0px" y="0px"
	 viewBox="0 0 100 100" style="enable-background:new 0 0 100 100;" xml:space="preserve">
<style type="text/css">
	.st0{fill:none;stroke:#CC0001;stroke-width:1.5;stroke-miterlimit:10;}
</style>
<path class="st0" d="M75.2,71.9c12.7-3.4,10.6-15.3,10.6-15.3l-2.5-25h0.2c0.9,0,1.6-0.7,1.6-1.6v-5.5c0-0.9-0.7-1.6-1.6-1.6h-1.1
	l-0.1-1.5C78.9,2.7,50,2.7,50,2.7s-28.9,0-32.3,18.7l-0.1,1.4h-1.1c-0.9,0-1.6,0.7-1.6,1.6v5.5c0,0.9,0.7,1.6,1.6,1.6h0.2l-2.5,25
	c0,0-2.1,11.9,10.6,15.3L0,97.3h10.2l4.5-5.2h70.5l4.6,5.2H100L75.2,71.9z M77.1,60v4.1c0,0.9-0.7,1.6-1.6,1.6h-8.3
	c-0.9,0-1.6-0.7-1.6-1.6V60c0-0.9,0.7-1.6,1.6-1.6h8.3C76.4,58.3,77.1,59.1,77.1,60z M25.2,22.9h49.6v14.9H25.2V22.9z M22.9,64.1V60
	c0-0.9,0.7-1.6,1.6-1.6h8.3c0.9,0,1.6,0.7,1.6,1.6v4.1c0,0.9-0.7,1.6-1.6,1.6h-8.3C23.6,65.8,22.9,65,22.9,64.1z M32.1,72.8h35.8H69
	l3.7,4.4H27.2l3.7-4.4C30.9,72.8,32.1,72.8,32.1,72.8z M18.5,87.3l4.7-5.6h53.4l4.7,5.6H18.5z"/>
</svg>
